<svg xmlns="http://www.w3.org/2000/svg" xmlns:xlink="http://www.w3.org/1999/xlink" width="145.264" height="156.781" viewBox="0 0 145.264 156.781">
  <defs>
    <filter id="admin_panel_settings_FILL0_wght400_GRAD0_opsz48" x="0" y="0" width="145.264" height="156.781" filterUnits="userSpaceOnUse">
      <feOffset dy="3" input="SourceAlpha"/>
      <feGaussianBlur stdDeviation="6" result="blur"/>
      <feFlood flood-opacity="0.278"/>
      <feComposite operator="in" in2="blur"/>
      <feComposite in="SourceGraphic"/>
    </filter>
  </defs>
  <g id="Group_315" data-name="Group 315" transform="translate(18 15)">
    <path id="security_FILL0_wght400_GRAD0_opsz48" d="M44.552,49.972V9.152L12.871,20.972h0V44.854q0,1.462.061,2.5t.3,2.62Z" transform="translate(2.748 10.418)" fill="#4833dd"/>
    <g transform="matrix(1, 0, 0, 1, -18, -15)" filter="url(#admin_panel_settings_FILL0_wght400_GRAD0_opsz48)">
      <path id="admin_panel_settings_FILL0_wght400_GRAD0_opsz48-2" data-name="admin_panel_settings_FILL0_wght400_GRAD0_opsz48" d="M88.47,96.138a8.833,8.833,0,0,0,6.668-2.879,9.582,9.582,0,0,0,2.728-6.82,9.315,9.315,0,0,0-9.4-9.4,9.582,9.582,0,0,0-6.82,2.728,8.833,8.833,0,0,0-2.879,6.668,9.834,9.834,0,0,0,9.7,9.7Zm-.152,18.943a19.454,19.454,0,0,0,9.093-2.122,19.951,19.951,0,0,0,6.971-6.062,36.818,36.818,0,0,0-7.88-3.182,31.341,31.341,0,0,0-8.183-1.061,32.2,32.2,0,0,0-8.259,1.061,33.384,33.384,0,0,0-7.8,3.182,20.173,20.173,0,0,0,6.9,6.062A19.33,19.33,0,0,0,88.319,115.081Zm.455,9.85a28.589,28.589,0,0,1-28.49-28.339,27.708,27.708,0,0,1,8.335-20.231,28.265,28.265,0,0,1,40.235,0,27.582,27.582,0,0,1,8.411,20.231,27.235,27.235,0,0,1-8.411,19.928A27.408,27.408,0,0,1,88.773,124.931Zm-32.279-.455H55.358a3.444,3.444,0,0,1-1.137-.3q-19.246-5.759-32.734-24.247A69.432,69.432,0,0,1,8,57.948V28.094a8.826,8.826,0,0,1,1.667-5.228,9.611,9.611,0,0,1,4.243-3.41l39.4-14.7a8.657,8.657,0,0,1,6.365,0l39.4,14.7a9.611,9.611,0,0,1,4.243,3.41,8.826,8.826,0,0,1,1.667,5.228V62.646a37.186,37.186,0,0,0-4.546-1.894A24.9,24.9,0,0,0,95.9,59.615V28.094h0l-39.4-14.548h0l-39.4,14.548h0V57.948a58.872,58.872,0,0,0,3.713,21.216,65.248,65.248,0,0,0,9.472,17.049,59.081,59.081,0,0,0,12.73,12.2,52.168,52.168,0,0,0,13.487,6.971,23.844,23.844,0,0,0,2.728,4.092,43.978,43.978,0,0,0,3.031,3.486,19.684,19.684,0,0,1-3.107,1.137A10.48,10.48,0,0,1,56.494,124.476Zm0-60.012Z" transform="translate(10 10.85)" fill="#3f2cc6"/>
    </g>
  </g>
</svg>
