<svg xmlns="http://www.w3.org/2000/svg" xmlns:xlink="http://www.w3.org/1999/xlink" width="135.194" height="134.68" viewBox="0 0 135.194 134.68">
  <defs>
    <filter id="manage_accounts_FILL0_wght400_GRAD0_opsz48" x="0" y="0" width="110.685" height="134.68" filterUnits="userSpaceOnUse">
      <feOffset dy="3" input="SourceAlpha"/>
      <feGaussianBlur stdDeviation="6" result="blur"/>
      <feFlood flood-opacity="0.278"/>
      <feComposite operator="in" in2="blur"/>
      <feComposite in="SourceGraphic"/>
    </filter>
  </defs>
  <g id="Group_317" data-name="Group 317" transform="translate(18 15)">
    <g transform="matrix(1, 0, 0, 1, -18, -15)" filter="url(#manage_accounts_FILL0_wght400_GRAD0_opsz48)">
      <path id="manage_accounts_FILL0_wght400_GRAD0_opsz48-2" data-name="manage_accounts_FILL0_wght400_GRAD0_opsz48" d="M54.85,56.421q-10.488,0-17.162-6.674T31.014,32.586q0-10.488,6.674-17.162T54.85,8.75q10.488,0,17.162,6.674t6.674,17.162q0,10.488-6.674,17.162T54.85,56.421ZM8.767,107.43A4.62,4.62,0,0,1,4,102.663V92.493A18.5,18.5,0,0,1,6.781,82.482a17.909,17.909,0,0,1,8.025-6.833,116.411,116.411,0,0,1,21.214-7.31,84.789,84.789,0,0,1,18.83-2.225H58.5a24.717,24.717,0,0,0-1.43,4.37,46.814,46.814,0,0,0-.795,5.164H54.85a81.83,81.83,0,0,0-18.036,1.986A82.472,82.472,0,0,0,18.619,84.23a8.618,8.618,0,0,0-3.814,3.575,9.6,9.6,0,0,0-1.271,4.688v5.4H56.28a30.9,30.9,0,0,0,1.907,5.164,24.926,24.926,0,0,0,2.7,4.37ZM54.85,46.887a13.86,13.86,0,0,0,14.3-14.3,13.86,13.86,0,0,0-14.3-14.3,13.86,13.86,0,0,0-14.3,14.3,13.86,13.86,0,0,0,14.3,14.3Zm0-14.3ZM56.28,97.9Z" transform="translate(14 6.25)" fill="#3f2cc6"/>
    </g>
    <path id="private_connectivity_FILL0_wght400_GRAD0_opsz48" d="M36.156,55.019A21.677,21.677,0,0,1,21.043,49.23a21.8,21.8,0,0,1-7.235-14.309h-7.4a2.412,2.412,0,1,1,0-4.823h7.4a21.8,21.8,0,0,1,7.235-14.309A21.677,21.677,0,0,1,36.156,10,21.677,21.677,0,0,1,51.27,15.788,21.8,21.8,0,0,1,58.5,30.1h7.4a2.412,2.412,0,1,1,0,4.823H58.5A21.8,21.8,0,0,1,51.27,49.23,21.677,21.677,0,0,1,36.156,55.019Zm0-4.823A17,17,0,0,0,48.7,45.01a17.1,17.1,0,0,0,5.145-12.5A17.567,17.567,0,0,0,36.156,14.823a17.1,17.1,0,0,0-12.5,5.145A17,17,0,0,0,18.47,32.509a17.037,17.037,0,0,0,5.185,12.5A17.037,17.037,0,0,0,36.156,50.2Zm-6.19-6.833h12.38A3.02,3.02,0,0,0,45.4,40.307V31.143a3.02,3.02,0,0,0-3.055-3.055h-.08v-3.3A6.312,6.312,0,0,0,40.5,20.33a5.932,5.932,0,0,0-8.682,0,6.312,6.312,0,0,0-1.769,4.462v3.3h-.08a3.02,3.02,0,0,0-3.055,3.055v9.164a3.02,3.02,0,0,0,3.055,3.055Zm6.19-5.225a2.337,2.337,0,1,1,1.728-.683A2.343,2.343,0,0,1,36.156,38.137Zm-3.7-10.049v-3.3A4.015,4.015,0,0,1,33.5,22.018a3.6,3.6,0,0,1,5.306,0,4.015,4.015,0,0,1,1.045,2.773v3.3Zm3.7,7.637Z" transform="translate(48.882 46.251)" fill="#4833dd"/>
  </g>
</svg>
