<svg xmlns="http://www.w3.org/2000/svg" xmlns:xlink="http://www.w3.org/1999/xlink" width="156.645" height="156.645" viewBox="0 0 156.645 156.645">
  <defs>
    <filter id="settings_input_component_FILL0_wght400_GRAD0_opsz48" x="0" y="0" width="156.645" height="156.645" filterUnits="userSpaceOnUse">
      <feOffset dy="6" input="SourceAlpha"/>
      <feGaussianBlur stdDeviation="6" result="blur"/>
      <feFlood flood-opacity="0.231"/>
      <feComposite operator="in" in2="blur"/>
      <feComposite in="SourceGraphic"/>
    </filter>
  </defs>
  <g id="Group_320" data-name="Group 320" transform="translate(18 12)">
    <g id="Group_313" data-name="Group 313" transform="translate(7.864 36.149)" opacity="0.598" style="mix-blend-mode: normal;isolation: isolate">
      <path id="Path_1286" data-name="Path 1286" d="M1061.714,3693.535h14.631v25.326h-14.955Z" transform="translate(-1061.389 -3693.389)" fill="#4a34e4"/>
      <path id="Path_1287" data-name="Path 1287" d="M1061.157,3693.535h14.718v25.617h-14.718Z" transform="translate(-971.269 -3693.535)" fill="#4a34e4"/>
    </g>
    <g transform="matrix(1, 0, 0, 1, -18, -12)" filter="url(#settings_input_component_FILL0_wght400_GRAD0_opsz48)">
      <path id="settings_input_component_FILL0_wght400_GRAD0_opsz48-2" data-name="settings_input_component_FILL0_wght400_GRAD0_opsz48" d="M17.492,122.645a3.986,3.986,0,0,1-4.113-4.113V99.339a19.251,19.251,0,0,1-8.02-5.827A13.546,13.546,0,0,1,2,84.669V34.218A3.986,3.986,0,0,1,6.113,30.1h7.266V6.113a4.076,4.076,0,0,1,1.1-3.016A4.076,4.076,0,0,1,17.492,2a4.076,4.076,0,0,1,3.016,1.1,4.076,4.076,0,0,1,1.1,3.016V30.1h7.266a3.986,3.986,0,0,1,4.113,4.113V84.669a13.711,13.711,0,0,1-3.29,8.843A18.628,18.628,0,0,1,21.6,99.339v19.331a3.726,3.726,0,0,1-1.234,2.81A4.061,4.061,0,0,1,17.492,122.645Zm44.831,0a3.986,3.986,0,0,1-4.113-4.113V99.339a19.251,19.251,0,0,1-8.02-5.827,13.546,13.546,0,0,1-3.359-8.843V34.218A3.986,3.986,0,0,1,50.943,30.1H58.21V6.113a4.076,4.076,0,0,1,1.1-3.016,4.7,4.7,0,0,1,6.032,0,4.076,4.076,0,0,1,1.1,3.016V30.1H73.7a3.986,3.986,0,0,1,4.113,4.113V84.669a13.711,13.711,0,0,1-3.29,8.843,18.628,18.628,0,0,1-8.089,5.827v19.331a3.726,3.726,0,0,1-1.234,2.81A4.061,4.061,0,0,1,62.322,122.645Zm44.831,0a3.986,3.986,0,0,1-4.113-4.113V99.339a19.251,19.251,0,0,1-8.02-5.827,13.546,13.546,0,0,1-3.359-8.843V34.218A3.986,3.986,0,0,1,95.774,30.1h7.266V6.113a4.076,4.076,0,0,1,1.1-3.016,4.7,4.7,0,0,1,6.032,0,4.076,4.076,0,0,1,1.1,3.016V30.1h7.266a3.986,3.986,0,0,1,4.113,4.113V84.669a13.546,13.546,0,0,1-3.359,8.843,19.251,19.251,0,0,1-8.02,5.827v19.331a3.726,3.726,0,0,1-1.234,2.81A4.061,4.061,0,0,1,107.153,122.645ZM10.226,38.331V63.556H24.758V38.331Zm44.831,0V63.556H69.589V38.331Zm44.831,0V63.556h14.532V38.331Zm-82.4,53.193a7.255,7.255,0,0,0,7.266-7.266V71.782H10.226V84.258a7.255,7.255,0,0,0,7.266,7.266Zm44.831,0a7.255,7.255,0,0,0,7.266-7.266V71.782H55.056V84.258a7.255,7.255,0,0,0,7.266,7.266Zm44.831,0a7.255,7.255,0,0,0,7.266-7.266V71.782H99.887V84.258a7.255,7.255,0,0,0,7.266,7.266ZM17.492,67.669ZM62.322,67.669ZM107.153,67.669ZM10.226,63.556h0Zm44.831,0h0Zm44.831,0h0Zm-82.4,8.226h0Zm44.831,0h0Zm44.831,0h0Z" transform="translate(16 10)" fill="#3f2cc6"/>
    </g>
  </g>
</svg>
