<svg xmlns="http://www.w3.org/2000/svg" xmlns:xlink="http://www.w3.org/1999/xlink" width="110.593" height="108.543" viewBox="0 0 110.593 108.543">
  <defs>
    <filter id="integration_instructions_FILL1_wght500_GRAD200_opsz48" x="1.025" y="0" width="108.543" height="108.543" filterUnits="userSpaceOnUse">
      <feOffset dy="3" input="SourceAlpha"/>
      <feGaussianBlur stdDeviation="6" result="blur"/>
      <feFlood flood-opacity="0.278"/>
      <feComposite operator="in" in2="blur"/>
      <feComposite in="SourceGraphic"/>
    </filter>
  </defs>
  <g id="Group_321" data-name="Group 321" transform="translate(0 4.774)">
    <path id="data_array_FILL1_wght500_GRAD200_opsz48" d="M111.569,83.772V4.325h-8.974a3.23,3.23,0,0,1-2.376-.968A3.23,3.23,0,0,1,99.251.981a3.378,3.378,0,0,1,.968-2.42,3.159,3.159,0,0,1,2.376-1.012h8.974A6.5,6.5,0,0,1,116.32-.426a6.5,6.5,0,0,1,2.024,4.751V83.772a6.46,6.46,0,0,1-2.024,4.8,6.575,6.575,0,0,1-4.751,1.98h-8.974A3.305,3.305,0,0,1,99.251,87.2a3.378,3.378,0,0,1,.968-2.42,3.159,3.159,0,0,1,2.376-1.012Zm-97.044,0h8.886A3.455,3.455,0,0,1,26.842,87.2a3.159,3.159,0,0,1-1.012,2.376,3.378,3.378,0,0,1-2.42.968H14.525A6.759,6.759,0,0,1,7.75,83.772V4.325A6.575,6.575,0,0,1,9.73-.426a6.46,6.46,0,0,1,4.8-2.024h8.886a3.3,3.3,0,0,1,2.42,1.012A3.3,3.3,0,0,1,26.842.981,3.159,3.159,0,0,1,25.83,3.357a3.378,3.378,0,0,1-2.42.968H14.525Z" transform="translate(-7.75 2.45)" fill="#4833dd"/>
    <g transform="matrix(1, 0, 0, 1, 0, -4.77)" filter="url(#integration_instructions_FILL1_wght500_GRAD200_opsz48)">
      <path id="integration_instructions_FILL1_wght500_GRAD200_opsz48-2" data-name="integration_instructions_FILL1_wght500_GRAD200_opsz48" d="M12.558,77.743a7.1,7.1,0,0,1-5.292-2.165,7.341,7.341,0,0,1-2.117-5.34V12.608A7.224,7.224,0,0,1,7.267,7.365C8.678,5.922,12.558,5.2,12.558,5.2H70.285s3.88.722,5.292,2.165a7.224,7.224,0,0,1,2.117,5.243v57.63a7.341,7.341,0,0,1-2.117,5.34,7.1,7.1,0,0,1-5.292,2.165ZM34.59,53.4a3.064,3.064,0,0,0,1.058-2.357,3.367,3.367,0,0,0-1.058-2.453l-7.023-7.023,7.12-7.216a2.9,2.9,0,0,0,.962-2.261,3.536,3.536,0,0,0-.962-2.453,3.369,3.369,0,0,0-4.714,0L20.64,38.874a4.154,4.154,0,0,0-1.058,2.742,3.475,3.475,0,0,0,1.058,2.55l9.14,9.14a3.367,3.367,0,0,0,2.453,1.058A3.205,3.205,0,0,0,34.59,53.4Zm13.758,0a3.014,3.014,0,0,0,2.309,1.058,3.639,3.639,0,0,0,2.5-1.058l9.236-9.14a3.72,3.72,0,0,0,.962-2.6A4.08,4.08,0,0,0,62.4,38.97l-9.332-9.332a3.369,3.369,0,0,0-4.714,0,3.115,3.115,0,0,0-1.058,2.405,2.832,2.832,0,0,0,1.058,2.309l7.12,7.12-7.023,7.216a3.193,3.193,0,0,0-1.155,2.405A3.014,3.014,0,0,0,48.349,53.4Z" transform="translate(13.88 9.8)" fill="#3f2cc6"/>
    </g>
  </g>
</svg>
