<svg xmlns="http://www.w3.org/2000/svg" xmlns:xlink="http://www.w3.org/1999/xlink" width="152.628" height="121.876" viewBox="0 0 152.628 121.876">
  <defs>
    <filter id="backup_FILL1_wght500_GRAD200_opsz48" x="0" y="0" width="152.628" height="121.876" filterUnits="userSpaceOnUse">
      <feOffset dy="3" input="SourceAlpha"/>
      <feGaussianBlur stdDeviation="6" result="blur"/>
      <feFlood flood-opacity="0.278"/>
      <feComposite operator="in" in2="blur"/>
      <feComposite in="SourceGraphic"/>
    </filter>
  </defs>
  <g transform="matrix(1, 0, 0, 1, 0, 0)" filter="url(#backup_FILL1_wght500_GRAD200_opsz48)">
    <path id="backup_FILL1_wght500_GRAD200_opsz48-2" data-name="backup_FILL1_wght500_GRAD200_opsz48" d="M30.115,93.076a28.014,28.014,0,0,1-20.48-8.422A27.846,27.846,0,0,1,1.15,64.11,28.646,28.646,0,0,1,7.658,45.672a26.611,26.611,0,0,1,16.588-9.889A36.633,36.633,0,0,1,37.2,15.111,35.072,35.072,0,0,1,59.719,7.2,33.713,33.713,0,0,1,84.6,17.663,37.554,37.554,0,0,1,95.7,42.928v3.062a23.382,23.382,0,0,1,15.759,7.146,22.508,22.508,0,0,1,6.316,16.333,22.824,22.824,0,0,1-6.89,16.652A22.509,22.509,0,0,1,94.3,93.076H64.185V52.881L71.2,59.9a3.841,3.841,0,0,0,3.254,1.276,4.876,4.876,0,0,0,3.254-1.4,4.2,4.2,0,0,0,1.4-3.254,4.609,4.609,0,0,0-1.4-3.381L62.909,38.59a4.684,4.684,0,0,0-3.445-1.4,4.275,4.275,0,0,0-3.318,1.4l-14.8,14.674A4.318,4.318,0,0,0,40,56.582,4.774,4.774,0,0,0,41.472,59.9a4.015,4.015,0,0,0,3.254,1.34A4.631,4.631,0,0,0,47.98,59.9l6.89-7.018V93.076Z" transform="translate(16.85 7.8)" fill="#3f2cc6"/>
  </g>
</svg>
