<svg id="Group_340" data-name="Group 340" xmlns="http://www.w3.org/2000/svg" width="238.56" height="41.523" viewBox="0 0 238.56 41.523">
  <path id="path3022" d="M0,0C2.28,0,4.44.54,5.521,1.62,5.7,3.3,4.2,6,3.24,6A9.774,9.774,0,0,0-.3,5.34c-5.46,0-8.161,5.641-8.161,11.221,0,3.48,1.2,5.581,3.961,5.581,2.94,0,5.94-1.98,7.62-3.48A3.161,3.161,0,0,1,4.08,21a4.585,4.585,0,0,1-1.44,3.42c-1.92,1.92-5.16,3.54-9.841,3.54-5.4,0-9.12-3.06-9.12-10.2C-16.321,8.4-10.141,0-.06,0Z" transform="translate(16.321 13.56)" fill="#373535"/>
  <g id="g3024" transform="translate(24.299 13.56)">
    <path id="path3026" d="M0,0C2.94,0,8.281-5.161,9.781-15a11.074,11.074,0,0,1,.24-1.38A7.524,7.524,0,0,0,7.56-16.8a7.572,7.572,0,0,0-6.54,3.42,16.982,16.982,0,0,0-3,9.541C-1.98-1.321-1.26,0-.06,0ZM-9.661-2.7a20.9,20.9,0,0,1,5.7-14.221c3.84-3.96,8.52-4.921,12.781-4.921a52,52,0,0,1,9.06,1.381c-.6,2.64-2.04,12.6-2.7,18.36a45.441,45.441,0,0,0-.3,7.141A22.616,22.616,0,0,1,8.16,6.12c-.539,0-.66-2.46-.479-4.8.059-.78.18-1.92.239-2.4C5.58,2.82.96,6.12-3.9,6.12c-3.48,0-5.761-2.88-5.761-8.76V-2.7Z" transform="translate(9.661 21.842)" fill="#373535"/>
  </g>
  <g id="g3028" transform="translate(53.86 13.56)">
    <path id="path3030" d="M0,0A8.636,8.636,0,0,1,5.881,2.04C5.821,3.721,4.5,6.54,2.4,5.76a8.925,8.925,0,0,0-3-.539c-1.62,0-3,.72-3,2.219,0,1.14.84,1.981,4.86,4.8,2.881,2.1,4.021,3.96,4.021,6.6,0,4.381-4.141,9.121-11.341,9.121-2.94,0-5.521-1.14-6.361-2.34-1.08-1.8-.24-5.34.961-4.741A15.7,15.7,0,0,0-5.22,22.5c1.98,0,3.24-.9,3.24-2.1,0-1.019-.9-1.92-4.56-4.5-3.061-2.28-4.021-4.38-4.021-6.78C-10.561,4.141-6.3,0-.06,0Z" transform="translate(12.919)" fill="#373535"/>
  </g>
  <g id="g3032" transform="translate(74.56 13.56)">
    <path id="path3034" d="M0,0A8.632,8.632,0,0,1,5.881,2.04C5.821,3.721,4.5,6.54,2.4,5.76a8.931,8.931,0,0,0-3-.539c-1.62,0-3,.72-3,2.219,0,1.14.84,1.981,4.86,4.8,2.88,2.1,4.02,3.96,4.02,6.6,0,4.381-4.141,9.121-11.341,9.121-2.94,0-5.52-1.14-6.36-2.34-1.08-1.8-.24-5.34.96-4.741A15.7,15.7,0,0,0-5.22,22.5c1.98,0,3.24-.9,3.24-2.1,0-1.019-.9-1.92-4.56-4.5-3.06-2.28-4.02-4.38-4.02-6.78C-10.56,4.141-6.3,0-.059,0Z" transform="translate(12.918)" fill="#373535"/>
  </g>
  <g id="g3036" transform="translate(96.716 13.56)">
    <path id="path3038" d="M0,0C2.941,0,8.281-5.161,9.781-15a11.08,11.08,0,0,1,.241-1.38,7.53,7.53,0,0,0-2.461-.42,7.575,7.575,0,0,0-6.541,3.42,16.992,16.992,0,0,0-3,9.541C-1.98-1.321-1.26,0-.059,0ZM-9.661-2.7a20.9,20.9,0,0,1,5.7-14.221c3.84-3.96,8.52-4.921,12.781-4.921a52.013,52.013,0,0,1,9.061,1.381c-.6,2.64-2.04,12.6-2.7,18.36a45.468,45.468,0,0,0-.3,7.141,22.609,22.609,0,0,1-6.72,1.08c-.539,0-.66-2.46-.48-4.8.06-.78.18-1.92.24-2.4C5.581,2.82.961,6.12-3.9,6.12c-3.481,0-5.763-2.88-5.763-8.76V-2.7Z" transform="translate(9.661 21.842)" fill="#373535"/>
  </g>
  <g id="g3040" transform="translate(127.077 13.561)">
    <path id="path3042" d="M0,0C2.761-4.44,6.36-7.8,11.4-7.8c4.26,0,5.64,3.96,4.861,9.6-.42,2.641-1.14,6.421-1.621,9.9a47.811,47.811,0,0,0-.659,7.381c-1.56.78-6.121,1.08-7.141,1.08-.42,0-.481-3.3.06-6.781.479-2.88,1.5-8.1,1.98-11.1.3-1.739.24-3.84-1.44-3.84C5.22-1.56-.059,1.981-2.7,16.5a3.112,3.112,0,0,1-1.321,2.34c-.9.541-2.82,1.021-6.719,1.081.72-3.66,1.86-11.161,2.7-16.681.779-5.04,1.08-8.281.9-9.541A64.213,64.213,0,0,1-.181-7.8C.481-7.8.6-5.94,0-1.439-.059-1.019-.12-.36-.181,0Z" transform="translate(10.74 7.8)" fill="#373535"/>
  </g>
  <g id="g3044" transform="translate(158.098)">
    <path id="path3046" d="M0,0C2.639,0,7.981-4.921,9.48-13.621c.061-.48.241-1.38.361-1.921a4.7,4.7,0,0,0-3.42-1.2c-6.063,0-8.763,7.261-8.763,12.483C-2.341-1.44-1.38,0-.061,0ZM-3.96,6.18c-3.84,0-6.24-3.42-6.24-9.3,0-9.721,6.059-18.663,16.26-18.663A9.12,9.12,0,0,1,10.5-20.7c.54-2.76,1.8-11.281,1.861-13.8a55.454,55.454,0,0,1,6.9-.839c.662,0,.842.659.6,2.159-1.441,9-4.019,26.283-4.5,30.124A62.275,62.275,0,0,0,15,5.16C13.081,6,9.18,6.18,8.161,6.18,7.739,6.18,7.5,3.42,7.62.96c.061-.78.18-1.921.18-2.1C4.8,3.78.659,6.18-3.9,6.18Z" transform="translate(10.2 35.342)" fill="#373535"/>
  </g>
  <g id="g3048" transform="translate(189.358 13.56)">
    <path id="path3050" d="M0,0C3.181-7.081,6.96-8.641,9.421-8.641a4,4,0,0,1,2.52,1.08c.241,1.98-1.319,5.94-2.7,7.44A5.919,5.919,0,0,0,6.6-.841C4.56-.841.54,2.34-1.98,16.02c-.181,1.141-.54,1.621-1.2,1.921-1.02.6-5.041,1.08-6.96,1.14C-9.241,14.16-7.681,4.14-7.08-1.741a32.816,32.816,0,0,0,.12-5.34A31.382,31.382,0,0,1-.3-8.641c.541,0,.961,3.3.119,8.641Z" transform="translate(10.139 8.641)" fill="#373535"/>
  </g>
  <g id="g3052" transform="translate(211.015 13.56)">
    <path id="path3054" d="M0,0C2.943,0,8.281-5.161,9.783-15a10.849,10.849,0,0,1,.24-1.38,7.524,7.524,0,0,0-2.461-.42,7.575,7.575,0,0,0-6.541,3.42,16.992,16.992,0,0,0-3,9.541C-1.98-1.321-1.26,0-.059,0ZM-9.661-2.7a20.9,20.9,0,0,1,5.7-14.221c3.84-3.96,8.52-4.921,12.781-4.921a52.064,52.064,0,0,1,9.063,1.381c-.6,2.64-2.041,12.6-2.7,18.36a45.289,45.289,0,0,0-.3,7.141A22.616,22.616,0,0,1,8.161,6.12c-.539,0-.659-2.46-.48-4.8.06-.78.18-1.92.241-2.4C5.581,2.82.963,6.12-3.9,6.12c-3.481,0-5.762-2.88-5.762-8.76V-2.7Z" transform="translate(9.661 21.842)" fill="#373535"/>
  </g>
</svg>
