<?xml version="1.0" encoding="UTF-8"?>
<svg inkscape:export-filename="/mnt/files/documents/monty-program-ab/logos-dbart/mariadb-seal-flat-browntext.png" inkscape:export-xdpi="89.714859" inkscape:export-ydpi="89.714859" inkscape:version="1.0.2 (e86c870879, 2021-01-15, custom)" sodipodi:docname="Mariadb-seal-browntext.svg" version="1.1" viewBox="0 0 405 119" xmlns="http://www.w3.org/2000/svg" xmlns:cc="http://creativecommons.org/ns#" xmlns:dc="http://purl.org/dc/elements/1.1/" xmlns:inkscape="http://www.inkscape.org/namespaces/inkscape" xmlns:rdf="http://www.w3.org/1999/02/22-rdf-syntax-ns#" xmlns:sodipodi="http://sodipodi.sourceforge.net/DTD/sodipodi-0.dtd" xmlns:xlink="http://www.w3.org/1999/xlink">
 <sodipodi:namedview id="cvfa" bordercolor="#666666" borderopacity="1.0" inkscape:current-layer="layer1" inkscape:cx="15.59889" inkscape:cy="60.421491" inkscape:document-rotation="0" inkscape:document-units="px" inkscape:pageopacity="0.0" inkscape:pageshadow="2" inkscape:window-height="1014" inkscape:window-maximized="1" inkscape:window-width="1920" inkscape:window-x="0" inkscape:window-y="36" inkscape:zoom="1" pagecolor="#ffffff" showgrid="false"/>
 <title>MariaDB seal, brown text</title>
 <metadata>
  <rdf:RDF>
   <cc:Work rdf:about="">
    <dc:format>image/svg+xml</dc:format>
    <dc:type rdf:resource="http://purl.org/dc/dcmitype/StillImage"/>
    <dc:title/>
    <dc:date>16 Oct 2009</dc:date>
    <dc:rights>
     <cc:Agent>
      <dc:title>MariaDB seal, brown text</dc:title>
     </cc:Agent>
    </dc:rights>
    <dc:creator>
     <cc:Agent>
      <dc:title>Mike Zinner</dc:title>
     </cc:Agent>
    </dc:creator>
    <dc:contributor>
     <cc:Agent>
      <dc:title>Daniel Bartholomew</dc:title>
     </cc:Agent>
    </dc:contributor>
    <dc:description>The MariaDB Seal Logo</dc:description>
    <dc:publisher>
     <cc:Agent>
      <dc:title>Monty Program Ab</dc:title>
     </cc:Agent>
    </dc:publisher>
    <dc:subject>
     <rdf:Bag>
      <rdf:li>seal</rdf:li>
      <rdf:li>mammal</rdf:li>
      <rdf:li>aquatic</rdf:li>
     </rdf:Bag>
    </dc:subject>
   </cc:Work>
  </rdf:RDF>
 </metadata>
 <g transform="translate(-108 -473)" inkscape:groupmode="layer" inkscape:label="Layer 1">
  <g transform="translate(1582 195)">
   <g transform="translate(1.26)" style="fill:#a57242">
    <path d="m-1149 341v31.2h-3.94v-5.35c-3.57 4.27-7.64 6.41-12.2 6.41-4.59 0-8.47-1.63-11.6-4.88-3.14-3.29-4.7-7.19-4.7-11.7 0-4.55 1.59-8.43 4.76-11.6 3.17-3.25 6.98-4.88 11.4-4.88 5.1 3e-5 9.23 2.18 12.4 6.53v-5.7h3.94m-3.7 15.8c0-3.57-1.2-6.57-3.59-9-2.39-2.47-5.33-3.7-8.82-3.7-3.45 3e-5 -6.37 1.27-8.76 3.82-2.39 2.51-3.59 5.49-3.59 8.94 0 3.45 1.22 6.45 3.65 9 2.43 2.51 5.33 3.76 8.7 3.76 3.41 1e-5 6.33-1.22 8.76-3.65 2.43-2.43 3.65-5.49 3.65-9.17" style="fill:#a57242"/>
   </g>
   <g transform="translate(.505)" style="fill:#a57242">
    <path d="m-1139 372v-42.2h8.76c6 4e-5 10.4 0.451 13.2 1.35 2.82 0.862 5.25 2.25 7.29 4.17 2.04 1.88 3.61 4.19 4.7 6.94 1.1 2.74 1.65 5.96 1.65 9.64 0 3.65-0.862 7.09-2.59 10.3-1.69 3.21-4 5.64-6.94 7.29-2.9 1.65-7.09 2.47-12.6 2.47h-13.5m4.06-4h4.88c5.1 1e-5 8.78-0.255 11.1-0.764 2.31-0.51 4.33-1.51 6.06-3 1.72-1.53 3.04-3.37 3.94-5.53 0.901-2.16 1.35-4.62 1.35-7.41 0-2.78-0.529-5.35-1.59-7.7-1.02-2.35-2.49-4.29-4.41-5.82-1.92-1.53-4.19-2.55-6.82-3.06-2.59-0.549-6.41-0.823-11.5-0.823h-3v34.1" style="fill:#a57242"/>
    <path d="m-1194 332c0-0.901 0.314-1.69 0.941-2.35 0.666-0.666 1.45-0.999 2.35-0.999 0.941 5e-5 1.72 0.333 2.35 0.999 0.666 0.627 1 1.41 1 2.35 0 0.902-0.333 1.69-1 2.35-0.627 0.627-1.41 0.941-2.35 0.941-0.901 4e-5 -1.69-0.333-2.35-0.999-0.627-0.666-0.941-1.43-0.941-2.29m1.29 8.7h4.06v31.2h-4.06v-31.2" style="fill:#a57242"/>
   </g>
   <g style="fill:#a57242">
    <path d="m-1305 372 6-42.2h0.647l17.2 34.6 17-34.6h0.647l6.06 42.2h-4.17l-4.12-30.2-14.9 30.2h-1.06l-15.1-30.5-4.12 30.5h-4.06" style="fill:#a57242"/>
   </g>
   <g transform="translate(-.253)" style="fill:#a57242">
    <path d="m-1219 341v31.2h-3.94v-5.35c-3.57 4.27-7.64 6.41-12.2 6.41-4.59 0-8.47-1.63-11.6-4.88-3.14-3.29-4.7-7.19-4.7-11.7 0-4.55 1.59-8.43 4.76-11.6 3.17-3.25 6.98-4.88 11.4-4.88 5.1 3e-5 9.23 2.18 12.4 6.53v-5.7h3.94m-3.7 15.8c-1e-4 -3.57-1.2-6.57-3.59-9-2.39-2.47-5.33-3.7-8.82-3.7-3.45 3e-5 -6.37 1.27-8.76 3.82-2.39 2.51-3.59 5.49-3.59 8.94 0 3.45 1.22 6.45 3.65 9 2.43 2.51 5.33 3.76 8.7 3.76 3.41 1e-5 6.33-1.22 8.76-3.65 2.43-2.43 3.64-5.49 3.65-9.17" style="fill:#a57242"/>
   </g>
   <g transform="translate(-1.01)" style="fill:#a57242">
    <path d="m-1211 341h4.12v4.53c1.1-1.84 2.16-3.19 3.17-4.06 1.06-0.862 2.21-1.29 3.47-1.29 1.29 3e-5 2.59 0.353 3.88 1.06l-2.12 3.41c-0.588-0.353-1.2-0.529-1.82-0.529-1.22 3e-5 -2.37 0.627-3.47 1.88-1.06 1.25-1.84 2.88-2.35 4.88-0.51 1.96-0.764 5.55-0.764 10.8v10.6h-4.12v-31.2" style="fill:#a57242"/>
   </g>
   <g transform="translate(1.01)" style="fill:#a57242">
    <path d="m-1096 330h8.35c4.43 4e-5 7.78 0.902 10.1 2.7 2.31 1.76 3.47 4.31 3.47 7.64 0 1.84-0.47 3.55-1.41 5.11-0.902 1.53-2.23 2.76-4 3.7 2.9 0.941 5.1 2.35 6.58 4.23 1.53 1.88 2.29 4.12 2.29 6.7-1e-4 3.49-1.27 6.39-3.82 8.7-2.55 2.27-5.84 3.41-9.88 3.41h-11.6v-42.2m4.17 4.12v13.5h2.41c3.68 3e-5 6.43-0.588 8.23-1.76 1.8-1.18 2.7-3.02 2.7-5.53 0-4.15-2.82-6.23-8.47-6.23h-4.88m0 17.8v16.2h5.23c3.02 0 5.23-0.294 6.64-0.882 1.45-0.627 2.63-1.57 3.53-2.82 0.901-1.29 1.35-2.61 1.35-3.94 0-1.33-0.255-2.51-0.764-3.53-0.51-1.02-1.27-1.92-2.29-2.7-0.98-0.784-2.18-1.37-3.59-1.76-1.37-0.392-3.96-0.588-7.76-0.588h-2.35" style="fill:#a57242"/>
   </g>
  </g>
  <g transform="translate(-145 181)" inkscape:label="Layer 1">
   <g inkscape:export-filename="/mnt/files/documents/monty-program-ab/logos-dbart/MariaDB-seal-flat.png" inkscape:export-xdpi="90" inkscape:export-ydpi="90">
    <path d="m429 293c-2.78 0.0888-1.9 0.89-7.91 2.37-6.06 1.49-13.5 1.03-20 3.77-19.5 8.18-23.4 36.1-41.1 46.1-13.2 7.48-26.6 8.08-38.6 11.8-7.9 2.48-16.5 7.55-23.7 13.7-5.55 4.79-5.7 9-11.5 15-6.21 6.42-24.7 0.109-33 9.94 2.7 2.72 3.88 3.49 9.19 2.78-1.1 2.08-7.58 3.84-6.31 6.91 1.34 3.23 17 5.41 31.2-3.19 6.63-4.01 11.9-9.78 22.2-11.2 13.4-1.78 28.8 1.14 44.2 3.38-2.3 6.84-6.9 11.4-10.6 16.8-1.14 1.23 2.3 1.37 6.22 0.625 7.06-1.74 12.1-3.15 17.5-6.25 6.54-3.81 7.53-13.6 15.6-15.7 4.47 6.88 16.6 8.5 24.2 3-6.62-1.88-8.45-16-6.22-22.2 2.12-5.88 4.21-15.3 6.34-23.1 2.29-8.35 3.13-18.9 5.91-23.1 4.17-6.4 8.78-8.6 12.8-12.2 4-3.61 7.66-7.12 7.54-15.4-0.0387-2.66-1.41-4.14-3.94-4.06z" style="fill-rule:evenodd;fill:#002b64" inkscape:export-filename="/mnt/files/documents/monty-program-ab/logos/seal-flat.png" inkscape:export-xdpi="90" inkscape:export-ydpi="90" sodipodi:nodetypes="czssccsccssccccsccsssssz"/>
    <path d="m259 405c10.1 1.45 16.3 0 24.5-3.53 6.93-3.01 13.6-9.2 21.8-11.8 12-3.86 25.2 5e-3 38.1 0.775 3.13 0.188 6.24 0.19 9.31-0.144 4.79-2.94 4.69-13.9 9.35-15-0.137 15.4-6.47 24.7-13.1 33.6 14-2.46 22.3-10.5 27.9-21.3 1.71-3.27 3.17-6.78 4.46-10.5 2 1.53 0.865 6.2 1.87 8.72 9.61-5.35 15.1-17.6 18.8-29.9 4.22-14.3 5.94-28.8 8.66-33 2.65-4.13 6.78-6.68 10.6-9.32 4.28-3.01 8.1-6.14 8.76-11.9-4.52-0.418-5.56-1.46-6.23-3.74-2.26 1.28-4.34 1.55-6.69 1.62-2.04 0.062-4.28-0.029-7.02 0.252-22.6 2.32-25.5 27.3-40 41.4-1.06 1.03-2.2 1.99-3.4 2.89-5.08 3.78-11.3 6.49-17 8.68-9.28 3.54-18.1 3.8-26.8 6.86-6.39 2.24-12.9 5.5-18.1 9.09-1.31 0.897-2.55 1.82-3.68 2.75-3.08 2.52-5.1 5.31-7.06 8.19-2.02 2.96-3.96 6.01-6.93 8.92-4.81 4.72-22.8 1.38-29.1 5.76-0.705 0.487-1.26 1.07-1.65 1.77 3.45 1.57 5.76 0.606 9.73 1.04 0.521 3.77-8.19 6.01-6.9 7.74z" style="fill:#c49a6c" inkscape:export-filename="/mnt/files/documents/monty-program-ab/logos/seal-flat.png" inkscape:export-xdpi="90" inkscape:export-ydpi="90"/>
    <path d="m396 377c0.27 4.32 2.78 12.9 4.99 15-4.34 1.06-11.8-0.688-13.7-3.75 0.985-4.42 6.11-8.46 8.73-11.2z" clip-rule="evenodd" style="fill-rule:evenodd;fill:#c49a6c" inkscape:export-filename="/mnt/files/documents/monty-program-ab/logos/seal-flat.png" inkscape:export-xdpi="90" inkscape:export-ydpi="90"/>
    <path d="m402 309c3.2 2.78 9.92 0.549 8.72-4.98-4.98-0.412-7.86 1.28-8.72 4.98z" clip-rule="evenodd" style="fill-rule:evenodd;fill:#002b64" inkscape:export-filename="/mnt/files/documents/monty-program-ab/logos/seal-flat.png" inkscape:export-xdpi="90" inkscape:export-ydpi="90"/>
    <path d="m424 302c-0.852 1.79-2.48 4.09-2.48 8.64-7e-3 0.781-0.593 1.32-0.603 0.112 0.044-4.45 1.22-6.37 2.47-8.89 0.581-1.04 0.931-0.608 0.615 0.142z" style="fill:#002b64" inkscape:export-filename="/mnt/files/documents/monty-program-ab/logos/seal-flat.png" inkscape:export-xdpi="90" inkscape:export-ydpi="90"/>
    <path d="m424 302c-1 1.7-3.42 4.82-3.82 9.35-0.074 0.777-0.706 1.26-0.61 0.057 0.436-4.42 2.37-7.19 3.84-9.6 0.666-0.979 0.979-0.523 0.597 0.196z" style="fill:#002b64" inkscape:export-filename="/mnt/files/documents/monty-program-ab/logos/seal-flat.png" inkscape:export-xdpi="90" inkscape:export-ydpi="90"/>
    <path d="m423 301c-1.14 1.61-4.87 5.35-5.65 9.83-0.14 0.767-0.81 1.2-0.613 6e-3 0.806-4.37 4.02-7.81 5.68-10.1 0.746-0.921 1.02-0.44 0.58 0.245z" style="fill:#002b64" inkscape:export-filename="/mnt/files/documents/monty-program-ab/logos/seal-flat.png" inkscape:export-xdpi="90" inkscape:export-ydpi="90"/>
    <path d="m422 300c-1.36 1.44-5.8 6.2-7.2 10.5-0.248 0.74-0.971 1.07-0.608-0.08 1.41-4.22 5.3-8.76 7.27-10.8 0.869-0.807 1.07-0.292 0.54 0.325z" style="fill:#002b64" inkscape:export-filename="/mnt/files/documents/monty-program-ab/logos/seal-flat.png" inkscape:export-xdpi="90" inkscape:export-ydpi="90"/>
   </g>
  </g>
 </g>
</svg>
