<svg id="mongodb-ar21" xmlns="http://www.w3.org/2000/svg" width="238.649" height="92.203" viewBox="0 0 238.649 92.203">
  <path id="Path_1288" data-name="Path 1288" d="M16.19,5.154l2.458,4.623a13.869,13.869,0,0,0,1.858,2.309,64.11,64.11,0,0,1,5.773,6.529,56.742,56.742,0,0,1,8.989,18.132,44.623,44.623,0,0,1,1.908,12.3A43.335,43.335,0,0,1,24.471,81.094a36.759,36.759,0,0,1-4.519,3.868c-.857,0-1.256-.677-1.608-1.256a10.036,10.036,0,0,1-1.256-3.615,17.336,17.336,0,0,1-.4-4.571v-.7c-.05-.151-.8-69.307-.5-69.659Z" transform="translate(4.236 -4.905)" fill="#599636"/>
  <path id="Path_1289" data-name="Path 1289" d="M27.516,5.144c-.1-.2-.2-.05-.3.05a4.6,4.6,0,0,1-.857,2.763,13.053,13.053,0,0,1-2.21,2.21,48.083,48.083,0,0,0-10.8,13.761,55.788,55.788,0,0,0-6.224,22.5c-.248,2.864.9,12.958,1.809,15.87A47.864,47.864,0,0,0,21.562,82.134a54.906,54.906,0,0,0,4.47,3.816c.451,0,.5-.4.6-.7a13.78,13.78,0,0,0,.451-1.96c.451-2.51.7-5.022,1-7.532L27.536,5.144Z" transform="translate(-7.09 -5.044)" fill="#6cac48"/>
  <path id="Path_1290" data-name="Path 1290" d="M19.448,49.589A7.141,7.141,0,0,1,20.7,46.527,3.188,3.188,0,0,1,19.3,45.219a10.685,10.685,0,0,1-.753-1.658,28.432,28.432,0,0,1-1.055-6.479V35.774a6.328,6.328,0,0,0-.3,2.16,50.234,50.234,0,0,1-.9,6.779,6.073,6.073,0,0,1-.8,2.612.985.985,0,0,0,.05.352,30.114,30.114,0,0,1,1.308,8.137v1c0,1.2-.05.954.954,1.353a4.412,4.412,0,0,1,1.256.5c.3,0,.352-.248.352-.451l-.151-1.658V51.942a12.122,12.122,0,0,1,.2-2.361Z" transform="translate(3.443 33.529)" fill="#c2bfbf"/>
  <g id="Group_339" data-name="Group 339" transform="translate(54.134 42.532)">
    <path id="Path_1291" data-name="Path 1291" d="M42.364,40.1v4.783a3.339,3.339,0,0,0,.032.566,1.211,1.211,0,0,0,.921,1.071,11.444,11.444,0,0,0,1.451.283c.283.032.378.157.41.461.032,1.071-.062,1.2-1.1,1.133a62.253,62.253,0,0,0-7.27,0h-.23c-.755.032-.818-.032-.818-.788,0-.127.032-.283.032-.41a.333.333,0,0,1,.378-.345c.507-.062.976-.189,1.451-.283a1.307,1.307,0,0,0,1.1-1.227,17.62,17.62,0,0,0,.092-2.2l.032-8.433a1.29,1.29,0,0,0-.691-1.2,8.958,8.958,0,0,0-1.8-.755,2.477,2.477,0,0,1-.534-.189c-.461-.221-.472-.629-.032-.882a1.605,1.605,0,0,1,.534-.189,28.6,28.6,0,0,0,5.6-1.416c.378-.127.472-.092.507.283a2.7,2.7,0,0,1-.032.723,7.923,7.923,0,0,0-.062,1.2.435.435,0,0,0,.189.41c.157.094.315,0,.461-.092a17.117,17.117,0,0,1,2.045-1.382A9.663,9.663,0,0,1,48.372,30a4.664,4.664,0,0,1,3.809,1.133,7.139,7.139,0,0,1,1.2,1.384c.315.461.345.472.755.157a18.563,18.563,0,0,1,3.809-2.234,5.844,5.844,0,0,1,4.311-.189,5.173,5.173,0,0,1,3.086,2.989,8.488,8.488,0,0,1,.723,3.523v8.433a1.212,1.212,0,0,0,.788,1.2,11.737,11.737,0,0,0,1.888.472c.41.092.41.092.41.507-.062,1.036-.157,1.1-1.165,1.036a67.76,67.76,0,0,0-7.583,0c-.507.032-.507.032-.534-.472v-.157c-.032-.852-.032-.852.788-1.036l.818-.221a1.267,1.267,0,0,0,.976-1.227l.092-2.36-.062-6.167a4.905,4.905,0,0,0-.345-1.605,3.859,3.859,0,0,0-4.187-2.423,7.113,7.113,0,0,0-3.4,1.354.677.677,0,0,0-.345.661,49.024,49.024,0,0,1,.127,6.043v4.375A1.211,1.211,0,0,0,55.4,46.523l1.451.315c.221.032.345.127.345.378v.23c-.032.882-.092.921-.976.912-2.517-.127-5.036-.092-7.521,0-.852.032-.921-.062-.882-.921.032-.507.092-.534.566-.629l1.036-.189a1.371,1.371,0,0,0,1.322-1.511L50.829,43l-.062-6.326a5.065,5.065,0,0,0-.661-2.266,3.313,3.313,0,0,0-2.959-1.826,6.644,6.644,0,0,0-3.685,1.036,1.854,1.854,0,0,0-1.071,1.921v4.594Zm59.291.191v4.438q.008.473.062.944a.967.967,0,0,0,.755.882,7.345,7.345,0,0,0,1.667.283c.315.032.378.157.41.41v.221c-.032,1.1-.157,1.227-1.227,1.165a60.645,60.645,0,0,0-7.176,0l-.921.032c-.189,0-.23-.092-.283-.221a3.2,3.2,0,0,1,0-1.322c.032-.189.157-.23.345-.283.461-.062.852-.157,1.29-.23a1.188,1.188,0,0,0,1.1-1.322l.092-2.644V34.907a1.17,1.17,0,0,0-.723-1.165,11.317,11.317,0,0,0-1.8-.755,2.652,2.652,0,0,1-.534-.221.571.571,0,0,1-.062-1.006,1.128,1.128,0,0,1,.629-.253A26.714,26.714,0,0,0,101.137,30c.221-.092.316-.032.41.157a1.045,1.045,0,0,1,.092.629l-.092,1.478c0,.189-.092.461.062.534.189.127.315-.157.472-.23a14.025,14.025,0,0,1,3.054-1.951,6.309,6.309,0,0,1,3.116-.691,5.291,5.291,0,0,1,4.594,3.054,8.266,8.266,0,0,1,.818,3.148l.092,2.3.032,6.955a1.054,1.054,0,0,0,.755,1.071,10.3,10.3,0,0,0,1.7.41c.507.062.534.157.567.629v.157c-.062,1.071-.127,1.1-1.2,1.036a65.837,65.837,0,0,0-7.049,0c-.315.032-.629,0-.921.032-.189,0-.315-.032-.345-.221a3.392,3.392,0,0,1-.032-1.26.347.347,0,0,1,.345-.315l1.451-.23a1.054,1.054,0,0,0,.852-.921l.062-.882-.032-6.577a11.073,11.073,0,0,0-.189-2.266,3.671,3.671,0,0,0-3.27-2.925,5.91,5.91,0,0,0-3.965,1.006,1.736,1.736,0,0,0-.852,1.573V40.45c0-.092,0-.092.032-.092Z" transform="translate(-35.47 -20.523)" fill="#47474a"/>
    <path id="Path_1292" data-name="Path 1292" d="M121.66,36.615a12.281,12.281,0,0,0-2.676-6.137,12.136,12.136,0,0,0-4.847-3.588,17.475,17.475,0,0,0-6.232-1.133c-.882-.032-12.9.157-13.785,0a.47.47,0,0,0-.507.221,3.594,3.594,0,0,0-.41.723c-.378.852-.378.788.534.912a17.057,17.057,0,0,1,2.2.41,1.731,1.731,0,0,1,1.29,1.322c.062.345.127,11.422.127,16.585l-.127,3.685a3.452,3.452,0,0,1-.157.818,1.318,1.318,0,0,1-.723.852,3.731,3.731,0,0,1-1.322.345c-.852.092-.976.127-1.26,1.071l-.092.345c-.062.41-.032.472.378.472l9.409.092,3.685-.062,2.549-.315a15.856,15.856,0,0,0,7.678-3.65,12.781,12.781,0,0,0,3.021-3.965,13.974,13.974,0,0,0,1.354-5.633,11.19,11.19,0,0,0-.092-3.367ZM117.1,41.082a12.6,12.6,0,0,1-1.573,5.727,8.712,8.712,0,0,1-5.822,4.468,10.319,10.319,0,0,1-3.454.189,10.459,10.459,0,0,1-2.455-.472,2.636,2.636,0,0,1-1.951-2.763l-.032-18.975c0-1.133.507-1.382,1.322-1.416a21.3,21.3,0,0,1,3.714.062,13.956,13.956,0,0,1,3.809.921,9.165,9.165,0,0,1,2.487,1.543,10.973,10.973,0,0,1,3.454,5.412,15.626,15.626,0,0,1,.507,5.255Zm30.72,3.086a2.972,2.972,0,0,0-.032-.534,6.034,6.034,0,0,0-2.611-4.06,9.833,9.833,0,0,0-3.021-1.416,3.345,3.345,0,0,0-.534-.157.269.269,0,0,1,.221-.221,8.036,8.036,0,0,0,1.762-1.133,5.914,5.914,0,0,0,1.951-3.054,5.428,5.428,0,0,0,.127-2.015,5.412,5.412,0,0,0-2.3-4.092,8.347,8.347,0,0,0-4.91-1.543c-3.4-.062-6.828,0-10.225,0a19.1,19.1,0,0,1-2.959-.092c-.189-.032-.461-.092-.6.127a4.476,4.476,0,0,0-.6,1.29c-.032.221.032.345.283.378l2.172.315a1.559,1.559,0,0,1,1.511,1.354,13.309,13.309,0,0,1,.092,1.573l-.062,5.884-.032,11.643a11.023,11.023,0,0,1-.221,2.045,1.151,1.151,0,0,1-.818.944,6.491,6.491,0,0,1-1.888.378.783.783,0,0,0-.818.534,4.088,4.088,0,0,0-.283.882c-.062.378.032.507.41.461.283-.032,10.669.221,12.62.032a19.1,19.1,0,0,0,3.461-.629,11.89,11.89,0,0,0,5.255-3.086,6.77,6.77,0,0,0,1.951-4.532,5.659,5.659,0,0,0,.092-1.26Zm-15.263-12.9.092-2.517a.7.7,0,0,1,.661-.788,9.221,9.221,0,0,1,2.266-.062,10.949,10.949,0,0,1,2.234.378,4.7,4.7,0,0,1,3.086,2.517,4.514,4.514,0,0,1,.44,1.921,6.052,6.052,0,0,1-.378,2.579,3.466,3.466,0,0,1-2.611,2.142,44.684,44.684,0,0,1-5.255.127c-.472,0-.507-.062-.507-.534V34.07a20.242,20.242,0,0,1-.032-2.77ZM142.777,48.2a4.828,4.828,0,0,1-2.895,2.925,5.5,5.5,0,0,1-2.3.41,18.333,18.333,0,0,1-2.925-.189,2.738,2.738,0,0,1-2.015-2.455c-.157-1.605-.062-3.242-.092-4.438V40.3c0-.507.062-.661.6-.661l2.959.032,2.015.23a6.812,6.812,0,0,1,3.714,1.951,5.1,5.1,0,0,1,1.354,3.116,6.98,6.98,0,0,1-.378,3.21Z" transform="translate(36.699 -25.749)" fill="#c2bfbf"/>
    <path id="Path_1293" data-name="Path 1293" d="M114.328,33.522l.818.127a2.029,2.029,0,0,0,2.234-1.511,3.178,3.178,0,0,0,0-1.8c-.189,0-.283.157-.378.221a3.024,3.024,0,0,1-1.573.661,7.24,7.24,0,0,1-3.367-.345l-1.543-.534a9.1,9.1,0,0,0-3.339-.438,11.572,11.572,0,0,0-4.532,1.416,6.15,6.15,0,0,0-3.086,3.714,7.35,7.35,0,0,0-.189,2.989,5.577,5.577,0,0,0,3.65,4.753c.127.032.221.092.345.127.283.157.315.315.062.534l-.788.534-1.888,1.165a.7.7,0,0,0-.378,1.006,3.293,3.293,0,0,0,1.006,1.511,5.25,5.25,0,0,0,1.448.882c.345.157.345.23.032.507l-1.8,1.29a10.76,10.76,0,0,0-1.7,1.511,3.109,3.109,0,0,0-.755,2.832,5.32,5.32,0,0,0,1.635,2.833,6.678,6.678,0,0,0,2.895,1.573,12.347,12.347,0,0,0,11.991-3.367,6.86,6.86,0,0,0,2.015-4.606,4.421,4.421,0,0,0-3.4-4.594l-1.7-.316-5.193-.461a3.481,3.481,0,0,1-1.605-.41,1.078,1.078,0,0,1-.378-1.573,1.5,1.5,0,0,1,1.071-.6l1.006-.092a9.119,9.119,0,0,0,5.317-2.423,5.573,5.573,0,0,0,1.605-2.676,8.39,8.39,0,0,0,.062-4.145c-.092-.345-.062-.378.378-.315ZM106.614,49.2a3.325,3.325,0,0,0,.566,0,18.448,18.448,0,0,1,3.965.507,8.243,8.243,0,0,1,1.227.472,3.014,3.014,0,0,1,1.573,3.178,3.977,3.977,0,0,1-2.2,3.086,6.735,6.735,0,0,1-2.676.755c-.345.032-.661,0-1.006,0a7.473,7.473,0,0,1-3.21-.534,4.964,4.964,0,0,1-1.856-1.26,3.247,3.247,0,0,1,.032-4.753,4.622,4.622,0,0,1,3.588-1.451Zm3.588-9.819a3.074,3.074,0,0,1-3.556,1.951,3.768,3.768,0,0,1-2.925-2.109,6.778,6.778,0,0,1-.566-5,3.08,3.08,0,0,1,2.517-2.487,3.854,3.854,0,0,1,4.343,2.077,6.873,6.873,0,0,1,.661,3.367,7.13,7.13,0,0,1-.472,2.2Zm-39.65-2.142A8.7,8.7,0,0,0,68.474,32.7a8.311,8.311,0,0,0-6.42-2.77,11.071,11.071,0,0,0-6.043,1.732,8.2,8.2,0,0,0-3.682,4.815,10.954,10.954,0,0,0-.092,5.538c1.1,4.974,4.942,7.111,9.534,6.8a10.466,10.466,0,0,0,3.869-1.133,8.491,8.491,0,0,0,4.06-4,10.339,10.339,0,0,0,1.006-4.847l-.157-1.605Zm-4.467,6.987a3.823,3.823,0,0,1-3.242,2.644A5.264,5.264,0,0,1,59,45.89a6.54,6.54,0,0,1-1.983-2.36,12.065,12.065,0,0,1-.852-8.244,4.721,4.721,0,0,1,1.322-2.3,4.292,4.292,0,0,1,4.03-1.006,5.729,5.729,0,0,1,3.454,2.3,9.026,9.026,0,0,1,1.573,4.03A16.576,16.576,0,0,1,66.7,40.26a10.53,10.53,0,0,1-.6,3.965Zm73.23-6.734a8.522,8.522,0,0,0-2.2-4.877,8.4,8.4,0,0,0-6.356-2.676,11.213,11.213,0,0,0-5.854,1.605,8.013,8.013,0,0,0-3.933,5.193,10.985,10.985,0,0,0,.755,7.489,7.638,7.638,0,0,0,5.131,4.249,10.315,10.315,0,0,0,7.427-.788,8.626,8.626,0,0,0,4.405-4.721,11.624,11.624,0,0,0,.723-4.187,7.2,7.2,0,0,0-.092-1.29Zm-4.343,6.326a3.92,3.92,0,0,1-3.367,3.054,5.232,5.232,0,0,1-3.714-.882,6.4,6.4,0,0,1-2.172-2.579,9.688,9.688,0,0,1-1.006-3.461,12.234,12.234,0,0,1,.157-4.405,4.492,4.492,0,0,1,.283-.85,4.243,4.243,0,0,1,5.131-2.706,5.728,5.728,0,0,1,3.588,2.487,9.268,9.268,0,0,1,1.451,4.145,8.442,8.442,0,0,1,.092,1.762,10.709,10.709,0,0,1-.461,3.461Z" transform="translate(-14.814 -20.549)" fill="#47474a"/>
  </g>
</svg>
