<svg xmlns="http://www.w3.org/2000/svg" width="300.116" height="45.149" viewBox="0 0 300.116 45.149">
  <g id="postgresql-horizontal" transform="translate(2.019 1.993)">
    <path id="Path_1294" data-name="Path 1294" d="M86.088,30.193h-11.6V18.523H86.718q6.717,0,6.717,5.926,0,5.745-7.347,5.746m8.34-11.808a9.674,9.674,0,0,0-6.674-2.136l-16.618.092v27.92h3.348l-.03-11.886H86.82a11.42,11.42,0,0,0,7.323-2.136,7.167,7.167,0,0,0,2.672-5.927,7.55,7.55,0,0,0-2.385-5.927ZM116.1,38.4a5.72,5.72,0,0,1-1.589,2.375q-2.25,2.2-6.866,2.195c-2.78,0-4.912-.7-6.4-2.134a7.552,7.552,0,0,1-2.233-5.713,8.769,8.769,0,0,1,.584-3.307,6.473,6.473,0,0,1,1.694-2.436,9.085,9.085,0,0,1,6.356-2.1q8.964,0,8.965,7.848a9.9,9.9,0,0,1-.5,3.277m.607-10.3c-2.04-1.86-5.06-2.8-9.062-2.8q-5.67,0-8.762,2.85a9.027,9.027,0,0,0-2.8,6.962,9.123,9.123,0,0,0,2.88,7.02,9.627,9.627,0,0,0,3.706,2.086,17.1,17.1,0,0,0,4.966.645c3.98,0,7-.92,9.092-2.76a8.933,8.933,0,0,0,2.8-6.992,8.936,8.936,0,0,0-2.82-7.022Zm25.318,11.107q0,5.637-10.1,5.637a29.05,29.05,0,0,1-5.2-.392,8.912,8.912,0,0,1-3.432-1.3,5.02,5.02,0,0,1-1.619-1.8,7.547,7.547,0,0,1-.78-2.8l3.133-.03a3.6,3.6,0,0,0,1.645,3.268q1.766,1.26,6.253,1.26,7.059,0,7.06-3.538c0-1.38-.8-2.328-2.368-2.85q-.48-.15-5.7-.794a36.212,36.212,0,0,1-6.518-1.155,4,4,0,0,1-2.787-3.988,4.491,4.491,0,0,1,2.5-4.2,12.341,12.341,0,0,1,3.076-.885,25.575,25.575,0,0,1,4.276-.315q9.723,0,9.723,6.1h-2.98c0-2.86-2.28-4.3-6.835-4.3A12.039,12.039,0,0,0,126.2,28a2.821,2.821,0,0,0-1.708,2.67q0,1.68,2.308,2.43A47.231,47.231,0,0,0,133,34a21.912,21.912,0,0,1,5.966,1.1q3.09,1.2,3.088,4.077ZM154.342,44.3l-1.275.18-.795.06a8.347,8.347,0,0,1-4.413-.887,3.4,3.4,0,0,1-1.353-3.1V27.8H142.8V25.924h3.687l.03-6.02h2.856v6.02h4.974v1.9l-4.974-.03v12.4a2.165,2.165,0,0,0,.735,1.9,4.84,4.84,0,0,0,2.624.526,2.286,2.286,0,0,0,.6-.02q.5-.089.99-.226l.03,1.9ZM174.1,40.07a8.5,8.5,0,0,1-2.667,1.47,10.639,10.639,0,0,1-3.446.5q-8.961,0-8.96-7.4a6.7,6.7,0,0,1,2.293-5.394,9.681,9.681,0,0,1,6.458-1.948q4.2,0,6.368,1.963a6.741,6.741,0,0,1,2.173,5.26,6.986,6.986,0,0,1-2.218,5.543m5.075-14.135h-2.856l-.03,3.15a19.055,19.055,0,0,0-2.7-2.427,12.816,12.816,0,0,0-6.207-1.318q-5.577,0-8.516,2.548a8.34,8.34,0,0,0-2.788,6.774,10.151,10.151,0,0,0,.705,3.9,7.876,7.876,0,0,0,2.057,2.922q2.943,2.457,8.32,2.458,6.456,0,9.16-3.532v3.26a6.058,6.058,0,0,1-1.964,4.828c-1.309,1.14-3.463,1.7-6.462,1.7-2.82,0-4.828-.4-6.027-1.164a4.827,4.827,0,0,1-1.86-3.1h-2.94a6.163,6.163,0,0,0,2.6,4.463c1.64,1.058,4.4,1.587,8.3,1.587q11.19,0,11.2-8.32V25.937Zm15.45,1.853a14.894,14.894,0,0,0-2.4-.2q-7.043,0-7.042,7.723v8.954h-2.826l-.03-18.322,2.857.028v3.27h.15a5.729,5.729,0,0,1,2.278-2.93,10.6,10.6,0,0,1,5.094-.966h1.917V27.8Zm2.657,6.158a8.179,8.179,0,0,1,2.427-4.836,8.525,8.525,0,0,1,2.788-1.487,11.521,11.521,0,0,1,3.508-.5,9.185,9.185,0,0,1,6.22,2.088,6.12,6.12,0,0,1,2.412,4.73H197.28m17.633-5.652a9.157,9.157,0,0,0-3.72-2.226,16.771,16.771,0,0,0-5.2-.722q-5.55,0-8.612,2.58a8.7,8.7,0,0,0-3.06,7.022,8.964,8.964,0,0,0,2.94,7.05c2.12,1.92,5.1,2.88,8.968,2.88a16.6,16.6,0,0,0,4.273-.523,11.789,11.789,0,0,0,3.434-1.48,8,8,0,0,0,3.27-4.57h-3.088Q212.528,43,206.2,43q-4.467,0-6.865-2.3a6.726,6.726,0,0,1-2.068-5.1h20.363a9.633,9.633,0,0,0-2.73-7.3Z" transform="translate(-12.169 -8.816)" fill="#231f20"/>
    <path id="Path_1295" data-name="Path 1295" d="M247.82,36.776q0,8.16-13.162,8.16-7.886,0-11.513-2.8-2.97-2.31-2.968-7.048h3.532q0,7.617,10.948,7.617,5.25,0,7.6-1.558a4.889,4.889,0,0,0,1.98-4.314,4.124,4.124,0,0,0-2.7-4.076,44.644,44.644,0,0,0-7.47-1.588q-7.47-1.14-9.688-2.277a5.9,5.9,0,0,1-3.2-5.694,6.227,6.227,0,0,1,2.73-5.574q2.94-2.007,10.078-2.008,12.9,0,12.9,8.568h-3.563q0-6.42-9.578-6.418-4.8,0-7.026,1.3a4.535,4.535,0,0,0-2.1,4.05,3.992,3.992,0,0,0,2.7,3.93q1.44.66,8.46,1.83,6.6.99,8.9,2.3a5.773,5.773,0,0,1,3.15,5.6Zm28.7,2.776a13.8,13.8,0,0,1-4.473,2.38,18.327,18.327,0,0,1-5.584.793q-6.306,0-10.194-3.4a11.422,11.422,0,0,1-3.887-9.057q0-5.9,3.857-9.192t10.223-3.293q6.455,0,10.148,3.443a10.405,10.405,0,0,1,2.882,3.923,13.246,13.246,0,0,1,.93,5.12,11.692,11.692,0,0,1-3.9,9.28M278.4,41.4a12.156,12.156,0,0,0,4.083-4.718,14.7,14.7,0,0,0,1.322-6.4,13.425,13.425,0,0,0-4.32-10.428,14.559,14.559,0,0,0-5.58-3.206,24.447,24.447,0,0,0-7.47-1.05q-8.16,0-12.8,3.955a13.347,13.347,0,0,0-4.65,10.727,13.358,13.358,0,0,0,4.693,10.636q4.693,4.044,12.82,4.045a31.371,31.371,0,0,0,5.547-.43,13.585,13.585,0,0,0,4.02-1.32l5.218,3.617,2.18-2L278.406,41.4Zm31.85,2.857H286.1V16.3l3.318-.06V41.917h20.848l-.03,2.334Z" transform="translate(-12.169 -8.816)" fill="#367faf"/>
    <path id="Path_1296" data-name="Path 1296" d="M48.237,39.567c.336-2.37.235-2.718,2.318-2.334l.53.04a13.993,13.993,0,0,0,4.928-.7c2.65-1.042,4.22-2.782,1.608-2.325-5.96,1.042-6.37-.67-6.37-.67,6.293-7.915,8.924-17.963,6.654-20.423C51.7,6.445,40.99,9.617,40.8,9.7l-.057.01a24.928,24.928,0,0,0-3.976-.35,11.087,11.087,0,0,0-6.3,1.6s-19.126-6.68-18.236,8.4c.19,3.208,5.425,24.273,11.668,17.91,2.282-2.327,4.488-4.294,4.488-4.294a6.6,6.6,0,0,0,3.781.818l.106-.077a2.939,2.939,0,0,0,.043.906c-1.608,1.523-1.136,1.79-4.352,2.352-3.253.568-1.342,1.58-.094,1.845,1.513.32,5.013.775,7.378-2.03l-.094.32c.63.428.588,3.075.678,4.967a15.371,15.371,0,0,0,.694,4.7c.454,1.041.992,3.72,5.218,2.954,3.532-.642,6.233-1.565,6.48-10.155" transform="translate(-12.169 -8.816)" fill="#231f20" stroke="#231f20" stroke-width="4.108"/>
    <path id="Path_1297" data-name="Path 1297" d="M57.62,34.244c-5.96,1.042-6.37-.67-6.37-.67,6.293-7.916,8.924-17.964,6.654-20.423C51.71,6.444,40.99,9.617,40.8,9.7l-.058.01a24.931,24.931,0,0,0-3.977-.35,11.09,11.09,0,0,0-6.3,1.6s-19.127-6.68-18.237,8.4c.19,3.208,5.424,24.274,11.668,17.91,2.282-2.327,4.487-4.294,4.487-4.294a6.6,6.6,0,0,0,3.781.818l.107-.077a3,3,0,0,0,.043.906c-1.608,1.523-1.136,1.79-4.35,2.352-3.254.568-1.342,1.58-.094,1.845,1.513.32,5.013.775,7.378-2.03l-.094.32c.63.428,1.073,2.783,1,4.92s-.124,3.6.373,4.746.992,3.72,5.22,2.954c3.532-.642,5.363-2.3,5.617-5.078.18-1.972.59-1.68.615-3.443l.328-.834c.378-2.673.06-3.535,2.236-3.134l.53.04a13.989,13.989,0,0,0,4.928-.7c2.65-1.042,4.22-2.782,1.608-2.325Z" transform="translate(-12.169 -8.816)" fill="#417ba2"/>
    <g id="Group_349" data-name="Group 349">
      <g id="Group_347" data-name="Group 347">
        <path id="Path_1298" data-name="Path 1298" d="M35.518,35.777c-.164,4.973.04,9.982.615,11.2s1.8,3.585,6.032,2.817c3.532-.642,4.817-1.884,5.374-4.626.4-2.017,1.2-7.62,1.3-8.767M30.45,10.843S11.3,4.213,12.2,19.3c.2,3.208,5.424,24.274,11.67,17.9,2.282-2.327,4.345-4.152,4.345-4.152M40.8,9.633c-.663.176,10.647-3.5,17.074,3.457,2.27,2.46-.36,12.508-6.654,20.424" transform="translate(-12.169 -8.816)" fill="none" stroke="#fff" stroke-linecap="round" stroke-linejoin="round" stroke-width="1.369"/>
        <path id="Path_1299" data-name="Path 1299" d="M51.21,33.513s.4,1.71,6.37.668c2.612-.457,1.04,1.283-1.61,2.326-2.174.855-7.048,1.074-7.127-.107-.205-3.05,2.565-2.123,2.365-2.887-.18-.688-1.42-1.363-2.24-3.047C48.253,29,39.158,17.724,51.49,19.4c.452-.08-3.217-9.944-14.76-10.1s-11.16,12.03-11.16,12.03" transform="translate(-12.169 -8.816)" fill="none" stroke="#fff" stroke-linecap="round" stroke-linejoin="bevel" stroke-width="1.369"/>
      </g>
      <g id="Group_348" data-name="Group 348" transform="translate(13.208 10.625)">
        <path id="Path_1300" data-name="Path 1300" d="M32.288,34.556c-1.61,1.523-1.136,1.79-4.352,2.352-3.254.57-1.342,1.58-.094,1.845,1.513.32,5.013.775,7.378-2.032.72-.855,0-2.22-.993-2.566a1.638,1.638,0,0,0-1.94.4Z" transform="translate(-25.377 -19.442)" fill="none" stroke="#fff" stroke-linejoin="round" stroke-width="1.369"/>
        <path id="Path_1301" data-name="Path 1301" d="M32.183,34.53a6.314,6.314,0,0,1,.893-3.208c.82-1.87,2.712-3.742,1.2-9.677-1.128-4.423-8.7-.92-8.7-.32a25.436,25.436,0,0,1-.127,5.88c-.612,3.708,2.783,6.843,6.692,6.523" transform="translate(-25.377 -19.442)" fill="none" stroke="#fff" stroke-linecap="round" stroke-linejoin="round" stroke-width="1.369"/>
      </g>
    </g>
    <g id="Group_350" data-name="Group 350" transform="translate(18.211 11.736)">
      <path id="Path_1302" data-name="Path 1302" d="M30.382,21.233c-.034.2.443.75,1.064.824a1.182,1.182,0,0,0,1.185-.558c.035-.2-.442-.43-1.064-.5s-1.152.034-1.185.238Z" transform="translate(-30.38 -20.553)" fill="#fff" stroke="#fff" stroke-width="0.456"/>
      <path id="Path_1303" data-name="Path 1303" d="M49.273,20.816c.034.2-.442.75-1.064.824a1.179,1.179,0,0,1-1.186-.56c-.034-.206.443-.43,1.064-.5s1.15.033,1.185.238Z" transform="translate(-30.38 -20.553)" fill="#fff" stroke="#fff" stroke-width="0.228"/>
    </g>
    <path id="Path_1304" data-name="Path 1304" d="M51.493,19.4c.1,1.607-.408,2.7-.473,4.412-.1,2.486,1.4,5.33-.852,8.18" transform="translate(-12.169 -8.816)" fill="none" stroke="#fff" stroke-linecap="round" stroke-linejoin="round" stroke-width="1.369"/>
  </g>
</svg>
